<svg width="20" height="20" viewBox="0 0 20 20" fill="none" xmlns="http://www.w3.org/2000/svg">
<path d="M8.75431 3.81498C7.87834 3.53141 6.92607 3.92585 6.50716 4.74578L6.00355 5.73151C5.94371 5.84864 5.84846 5.9439 5.73133 6.00373L4.7456 6.50735C3.92566 6.92625 3.53123 7.87852 3.81479 8.7545L4.15571 9.80762C4.19621 9.93275 4.19621 10.0675 4.15571 10.1926L3.81479 11.2457C3.53123 12.1217 3.92566 13.074 4.7456 13.4929L5.73133 13.9965C5.84846 14.0564 5.94371 14.1516 6.00355 14.2687L6.50716 15.2545C6.92607 16.0744 7.87834 16.4689 8.75431 16.1853L9.80744 15.8444C9.93256 15.8039 10.0673 15.8039 10.1924 15.8444L11.2456 16.1853C12.1216 16.4689 13.0738 16.0744 13.4928 15.2545L13.9963 14.2687C14.0562 14.1516 14.1514 14.0564 14.2686 13.9965L15.2543 13.4929C16.0743 13.074 16.4687 12.1217 16.1851 11.2457L15.8442 10.1926C15.8037 10.0675 15.8037 9.93275 15.8442 9.80762L16.1851 8.7545C16.4687 7.87852 16.0743 6.92625 15.2543 6.50735L14.2686 6.00373C14.1514 5.9439 14.0562 5.84864 13.9963 5.73151L13.4928 4.74578C13.0738 3.92585 12.1216 3.53141 11.2456 3.81498L10.1924 4.15589C10.0673 4.19639 9.93256 4.1964 9.80744 4.15589L8.75431 3.81498ZM6.72479 9.84843L7.60868 8.9645L9.37644 10.7323L12.912 7.19678L13.7959 8.08066L9.37644 12.5001L6.72479 9.84843Z" fill="#47C2FF"/>
</svg>
